<svg id="Layer_1" data-name="Layer 1" xmlns="http://www.w3.org/2000/svg" viewBox="0 0 100 100"><defs><style>.cls-1{fill:#003047;}.cls-2{fill:#fff;}.cls-3{fill:#e0a897;}.cls-4{fill:none;stroke:#fff;stroke-linecap:round;stroke-linejoin:round;stroke-width:3px;}</style></defs><path class="cls-1" d="M33.9,76.39,47.66,90.15a31.73,31.73,0,0,0,44.87,0l3.68-3.68a11,11,0,0,0,0-15.6l-14-14a11,11,0,0,0-15.6,0l-4.87,4.87h0l-2,1.95L36.26,40.15l6.81-6.81a11,11,0,0,0,0-15.6l-13.95-14a11,11,0,0,0-15.6,0L9.84,7.46a31.77,31.77,0,0,0,0,44.87L23.41,65.89Z"/><path class="cls-2" d="M30.9,37.2a2.38,2.38,0,0,0,0-4.75,2.38,2.38,0,0,0,0,4.75Z"/><path class="cls-3" d="M89.78,4.47h-29a9.67,9.67,0,0,0-9.66,9.66v22a9.67,9.67,0,0,0,9.66,9.66h7.32l5.66,7.36a1.9,1.9,0,0,0,1.53.75h0a2,2,0,0,0,1.54-.76l5.6-7.35h7.32a9.67,9.67,0,0,0,9.66-9.66v-22A9.67,9.67,0,0,0,89.78,4.47Z"/><line class="cls-4" x1="6.96" y1="11.81" x2="22.87" y2="27.72"/><line class="cls-4" x1="59.82" y1="63.72" x2="89.4" y2="92.23"/><path class="cls-2" d="M63.55,31.32c0-2.1.72-4.11,4.54-6.56,2.21-1.43,3.09-2.11,3.09-3.6a2,2,0,0,0-2.27-2.1,4.25,4.25,0,0,0-3.4,2.14L63.69,20A6.1,6.1,0,0,1,69,16.87c2.84,0,4.54,1.65,4.54,4.11,0,1.76-.64,3.1-3.42,4.86-2.31,1.47-3.49,2.6-3.74,3.64h7.24v2.15H63.55Z"/><path class="cls-2" d="M82.38,28.66h-7V26.74l6.6-9.59h2.82v9.39H87.2v2.12H84.75v3H82.38Zm0-2.12V20.06h0L78,26.54Z"/></svg>