<?xml version="1.0" encoding="utf-8"?>
<!-- Generator: Adobe Illustrator 25.2.1, SVG Export Plug-In . SVG Version: 6.00 Build 0)  -->
<svg version="1.1" id="Layer_1" xmlns="http://www.w3.org/2000/svg" xmlns:xlink="http://www.w3.org/1999/xlink" x="0px" y="0px"
	 viewBox="0 0 512 512" style="enable-background:new 0 0 512 512;" xml:space="preserve">
<style type="text/css">
	.st0{fill:#81A2AE;}
	.st1{fill:#003047;}
</style>
<g id="badminton_court-badminton-coronavirus-virus-outbreck">
	<g>
		<path class="st0" d="M400,296h56v48h-56V296z"/>
		<path class="st0" d="M400,200h56v48h-56V200z"/>
		<path class="st1" d="M408,424h-64v16v16h64V424z"/>
		<path class="st0" d="M352,248h48v48h-48V248z"/>
		<path class="st0" d="M304,296h48v48h-48V296z"/>
		<path class="st0" d="M304,200h48v48h-48V200z"/>
		<path class="st0" d="M256,248h48v48h-48V248z"/>
		<path class="st1" d="M232,120c0,13.3,10.7,24,24,24c13.3,0,24-10.7,24-24v-8h-48V120z"/>
		<path class="st0" d="M208,296h48v48h-48V296z"/>
		<path class="st0" d="M208,200h48v48h-48V200z"/>
		<path class="st0" d="M160,248h48v48h-48V248z"/>
		<path class="st0" d="M112,296h48v48h-48V296z"/>
		<path class="st0" d="M112,200h48v48h-48V200z"/>
		<path class="st0" d="M56,248h56v48H56V248z"/>
	</g>
	<path class="st1" d="M488,176h-32c-4.4,0-8,3.6-8,8v8H64v-8c0-4.4-3.6-8-8-8H24c-4.4,0-8,3.6-8,8v304c0,4.4,3.6,8,8,8h32
		c4.4,0,8-3.6,8-8V352h384v136c0,4.4,3.6,8,8,8h32c4.4,0,8-3.6,8-8V184C496,179.6,492.4,176,488,176z M48,480H32V192h16V480z
		 M104,336H64v-32h40V336z M104,288H64v-32h40V288z M104,240H64v-32h40V240z M152,336h-32v-32h32V336z M152,288h-32v-32h32V288z
		 M152,240h-32v-32h32V240z M200,336h-32v-32h32V336z M200,288h-32v-32h32V288z M200,240h-32v-32h32V240z M248,336h-32v-32h32V336z
		 M248,288h-32v-32h32V288z M248,240h-32v-32h32V240z M296,336h-32v-32h32V336z M296,288h-32v-32h32V288z M296,240h-32v-32h32V240z
		 M344,336h-32v-32h32V336z M344,288h-32v-32h32V288z M344,240h-32v-32h32V240z M392,336h-32v-32h32V336z M392,288h-32v-32h32V288z
		 M392,240h-32v-32h32V240z M448,336h-40v-32h40V336z M448,288h-40v-32h40V288z M448,240h-40v-32h40V240z M480,480h-16V192h16V480z"
		/>
	<path class="st0" d="M304.5,21.3L297.7,40H264V24h-16v16h-33.7l-6.8-18.7l-15,5.4l31.5,86.7v6.6c0,17.7,14.3,32,32,32
		c17.7,0,32-14.3,32-32v-6.6l31.5-86.7L304.5,21.3z M220.2,56H248v16h-22L220.2,56z M231.8,88H248v16h-10.4L231.8,88z M256,136
		c-8.8,0-16-7.2-16-16h32C272,128.8,264.8,136,256,136z M274.4,104H264V88h16.2L274.4,104z M286,72h-22V56h27.8L286,72z"/>
	<path class="st0" d="M408,416h-64c-4.4,0-8,3.6-8,8v8h-96.6c-4-27.5-27.5-48-55.4-48h-32c-30.9,0-56,25.1-56,56s25.1,56,56,56h32
		c27.8,0,51.4-20.5,55.4-48H336v8c0,4.4,3.6,8,8,8h64c4.4,0,8-3.6,8-8v-32C416,419.6,412.4,416,408,416z M208,408.2
		c3,2.2,5.6,4.8,7.8,7.8H208V408.2z M128,471.8c-3-2.2-5.6-4.8-7.8-7.8h7.8V471.8z M128,448h-15.2c-1.1-5.3-1.1-10.7,0-16H128V448z
		 M128,416h-7.8c2.2-3,4.8-5.6,7.8-7.8V416z M160,480h-8c-2.7,0-5.4-0.3-8-0.8V464h16V480z M160,448h-16v-16h16V448z M160,416h-16
		v-15.2c2.6-0.5,5.3-0.8,8-0.8h8V416z M192,479.2c-2.6,0.5-5.3,0.8-8,0.8h-8v-16h16V479.2z M192,448h-16v-16h16V448z M192,416h-16
		v-16h8c2.7,0,5.4,0.3,8,0.8V416z M208,471.8V464h7.8C213.6,467,211,469.6,208,471.8z M223.2,448H208v-16h15.2
		C224.3,437.3,224.3,442.7,223.2,448z M400,448h-48v-16h48V448z"/>
	<path class="st1" d="M88,88h16v16H88V88z"/>
	<path class="st0" d="M32,112c5.7,0,10.9-3.1,13.8-8h11c1,5,3,9.8,5.9,14l-7.9,7.9c-5.5-1.4-11.2,0.1-15.3,4
		c-6.4,6.2-6.5,16.4-0.3,22.8s16.4,6.5,22.8,0.3c4.2-4.1,5.9-10.2,4.3-15.9l7.8-7.8c4.3,2.8,9,4.8,14,5.9v11
		c-7.7,4.4-10.3,14.2-5.9,21.9c4.4,7.7,14.2,10.3,21.9,5.9s10.3-14.2,5.9-21.9c-1.4-2.4-3.4-4.5-5.9-5.9v-11c5-1,9.8-3,14-5.9
		l7.8,7.8c-1.6,5.5,0,11.4,4.1,15.4c6.1,6.4,16.3,6.5,22.6,0.4s6.5-16.3,0.4-22.6c-0.1-0.1-0.3-0.3-0.4-0.4c-4.1-3.9-9.9-5.4-15.3-4
		l-7.9-7.9c2.8-4.3,4.8-9,5.9-14h11c4.4,7.7,14.2,10.3,21.9,5.9c7.7-4.4,10.3-14.2,5.9-21.9s-14.2-10.3-21.9-5.9
		c-2.4,1.4-4.5,3.4-5.9,5.9h-11c-1-5-3-9.8-5.9-14l7.8-7.8c5.5,1.6,11.4,0,15.4-4.1c6.2-6.2,6.2-16.4,0-22.6
		c-6.3-6.1-16.3-6.1-22.6,0c-4.1,4-5.7,9.9-4.1,15.4l-7.8,7.8c-4.3-2.8-9-4.8-14-5.9v-11c7.7-4.4,10.3-14.2,5.9-21.9
		c-4.4-7.7-14.2-10.3-21.9-5.9s-10.3,14.2-5.9,21.9c1.4,2.4,3.4,4.5,5.9,5.9v11c-5,1-9.8,3-14,5.9l-7.8-7.8c1.6-5.5,0-11.4-4.1-15.4
		c-6.3-6-16.3-6-22.6,0c-6.3,6.1-6.4,16.2-0.3,22.5c4.1,4.2,10.1,5.8,15.7,4.2l7.8,7.8c-2.8,4.3-4.8,9-5.9,14h-11
		c-4.4-7.7-14.2-10.3-21.9-5.9S13.6,96.3,18.1,104C20.9,109,26.3,112,32,112z M96,72c13.3,0,24,10.7,24,24s-10.7,24-24,24
		s-24-10.7-24-24S82.7,72,96,72z"/>
	<path class="st1" d="M408,88h16v16h-16V88z"/>
	<path class="st0" d="M352,112c5.7,0,10.9-3.1,13.8-8h11c1,5,3,9.8,5.9,14l-7.9,7.9c-5.5-1.4-11.2,0.1-15.3,4
		c-6.4,6.2-6.5,16.4-0.3,22.8s16.4,6.5,22.8,0.3c4.2-4.1,5.9-10.2,4.3-15.9l7.8-7.8c4.3,2.8,9,4.8,14,5.9v11
		c-7.7,4.4-10.3,14.2-5.9,21.9c4.4,7.7,14.2,10.3,21.9,5.9s10.3-14.2,5.9-21.9c-1.4-2.4-3.4-4.5-5.9-5.9v-11c5-1,9.8-3,14-5.9
		l7.8,7.8c-1.6,5.5,0,11.4,4.1,15.4c6.1,6.4,16.3,6.5,22.6,0.4s6.5-16.3,0.4-22.6c-0.1-0.1-0.3-0.3-0.4-0.4c-4.1-3.9-9.9-5.4-15.3-4
		l-7.9-7.9c2.8-4.3,4.8-9,5.9-14h11c4.4,7.7,14.2,10.3,21.9,5.9c7.7-4.4,10.3-14.2,5.9-21.9c-4.4-7.7-14.2-10.3-21.9-5.9
		c-2.4,1.4-4.5,3.4-5.9,5.9h-11c-1-5-3-9.8-5.9-14l7.8-7.8c5.5,1.6,11.4,0,15.4-4.1c6.2-6.2,6.2-16.4,0-22.6
		c-6.3-6.1-16.3-6.1-22.6,0c-4.1,4-5.7,9.9-4.1,15.4l-7.8,7.8c-4.3-2.8-9-4.8-14-5.9v-11c7.7-4.4,10.3-14.2,5.9-21.9
		s-14.2-10.3-21.9-5.9s-10.3,14.2-5.9,21.9c1.4,2.4,3.4,4.5,5.9,5.9v11c-5,1-9.8,3-14,5.9l-7.8-7.8c1.6-5.5,0-11.4-4.1-15.4
		c-6.3-6-16.3-6-22.6,0c-6.3,6.1-6.4,16.2-0.3,22.5c4.1,4.2,10.1,5.8,15.7,4.2l7.8,7.8c-2.8,4.3-4.8,9-5.9,14h-11
		c-4.4-7.7-14.2-10.3-21.9-5.9c-7.7,4.4-10.3,14.2-5.9,21.9C340.9,109,346.3,112,352,112L352,112z M416,72c13.3,0,24,10.7,24,24
		s-10.7,24-24,24s-24-10.7-24-24S402.7,72,416,72z"/>
</g>
</svg>
