<?xml version="1.0" encoding="utf-8"?>
<!-- Generator: Adobe Illustrator 25.2.1, SVG Export Plug-In . SVG Version: 6.00 Build 0)  -->
<svg version="1.1" id="Layer_1" xmlns="http://www.w3.org/2000/svg" xmlns:xlink="http://www.w3.org/1999/xlink" x="0px" y="0px"
	 viewBox="0 0 512 512" style="enable-background:new 0 0 512 512;" xml:space="preserve">
<style type="text/css">
	.st0{fill:#81A2AE;}
	.st1{fill:#D1D3D4;}
	.st2{fill:#003047;}
	.st3{fill:#F1F2F2;}
	.st4{fill:#BCBEC0;}
</style>
<g id="car-wifi-garage-parking-home">
	<path class="st0" d="M368,344l-1.9,1.9c-9,9-21.2,14.1-34,14.1H179.9c-12.8,0-25-5.1-34-14.1L144,344c-17.7,0-32,14.3-32,32v64
		c0,8.8,7.2,16,16,16h256c8.8,0,16-7.2,16-16v-64C400,358.3,385.7,344,368,344z"/>
	<path class="st1" d="M314.5,280h-117c-22,0-41.2,15-46.6,36.4L144,344l1.9,1.9c9,9,21.2,14.1,33.9,14.1h152.2
		c12.7,0,24.9-5.1,33.9-14.1l1.9-1.9l-6.9-27.6C355.7,295,336.5,280,314.5,280L314.5,280z"/>
	<path class="st2" d="M56,184v-32H24v336h32V248v-32V184z"/>
	<path class="st2" d="M456,184v32v32v240h32V152h-32V184z"/>
	<path class="st0" d="M488,128v24H24v-24L256,24L488,128z"/>
	<path class="st0" d="M56,152h400v32H56V152z"/>
	<path class="st0" d="M56,184h400v32H56V184z"/>
	<path class="st0" d="M56,216h400v32H56V216z"/>
	<path class="st0" d="M320,472c0,8.8,7.2,16,16,16h32c8.8,0,16-7.2,16-16v-16h-64V472z"/>
	<path class="st0" d="M128,472c0,8.8,7.2,16,16,16h32c8.8,0,16-7.2,16-16v-16h-64V472z"/>
	<path class="st0" d="M195.5,413.8c2.7,10.7,12.3,18.2,23.3,18.2h74.5c11,0,20.6-7.5,23.3-18.2L320,400H192L195.5,413.8z"/>
	<path class="st0" d="M416,332c0-6.6-5.4-12-12-12h-11.4c-5.3,0-10.3,2.7-13.3,7.1L368,344h36C410.6,344,416,338.6,416,332z"/>
	<path class="st0" d="M119.4,320H108c-6.6,0-12,5.4-12,12s5.4,12,12,12h36l-11.2-16.9C129.8,322.7,124.8,320,119.4,320z"/>
	<path class="st3" d="M352,408c0,8.8,7.2,16,16,16h32v-40l-48,16V408z"/>
	<path class="st3" d="M160,408v-8l-48-16v40h32C152.8,424,160,416.8,160,408z"/>
	<path class="st4" d="M361.1,316.4c-3.4-13.6-12.6-24.9-25.1-31.2V312c0,17.7-14.3,32-32,32H144l1.9,1.9c9,9,21.2,14.1,33.9,14.1
		h152.2c12.7,0,24.9-5.1,33.9-14.1l1.9-1.9L361.1,316.4z"/>
	<g>
		<path class="st2" d="M491.3,120.7l-232-104c-2.1-1-4.5-1-6.6,0l-232,104c-2.9,1.3-4.7,4.1-4.7,7.3v360c0,4.4,3.6,8,8,8h32
			c4.4,0,8-3.6,8-8V256h384v232c0,4.4,3.6,8,8,8h32c4.4,0,8-3.6,8-8V128C496,124.9,494.1,122,491.3,120.7z M48,480H32V160h16V480z
			 M448,240H64v-16h384V240z M448,208H64v-16h384V208z M448,176H64v-16h384V176z M480,480h-16V160h16V480z M480,144H32v-10.8
			L256,32.8l224,100.4V144z"/>
		<path class="st2" d="M222.1,86.1c18.7-18.7,49.1-18.7,67.9,0c0,0,0,0,0,0c3.1,3.2,8.1,3.3,11.3,0.2c3.2-3.1,3.3-8.1,0.2-11.3
			c-0.1-0.1-0.1-0.1-0.2-0.2c-25-25-65.5-25-90.5,0c0,0,0,0,0,0c-3.2,3.1-3.3,8.1-0.2,11.3c3.1,3.2,8.1,3.3,11.3,0.2
			C221.9,86.2,222,86.1,222.1,86.1L222.1,86.1z"/>
		<path class="st2" d="M256,80c-10.6,0-20.8,4.2-28.3,11.7c-3.3,2.9-3.6,8-0.7,11.3c2.9,3.3,8,3.6,11.3,0.7c0.2-0.2,0.4-0.4,0.6-0.6
			c9.5-9.1,24.5-9.1,34,0c3.3,2.9,8.4,2.6,11.3-0.7c2.7-3.1,2.7-7.7-0.1-10.7C276.7,84.2,266.6,80,256,80L256,80z"/>
		<circle class="st2" cx="256" cy="120" r="16"/>
		<path class="st2" d="M320,392H192c-4.4,0-8,3.6-8,8c0,0.7,0.1,1.3,0.2,1.9l3.5,13.8c3.5,14.3,16.4,24.3,31,24.2h74.5
			c14.7,0,27.5-10,31-24.2l3.5-13.8c1.1-4.3-1.5-8.6-5.8-9.7C321.3,392.1,320.7,392,320,392L320,392z M308.8,411.9
			c-1.8,7.1-8.2,12.1-15.5,12.1h-74.5c-7.3,0-13.7-5-15.5-12.1l-1-3.9h107.5L308.8,411.9z"/>
		<path class="st2" d="M424,332c0-11-9-20-20-20h-11.4c-8,0-15.6,4-20,10.7l-1.2,1.8l-2.5-10.1c-6.2-24.9-28.6-42.4-54.3-42.4H197.4
			c-25.7,0-48.1,17.5-54.3,42.4l-2.5,10.1l-1.2-1.8c-4.4-6.7-12-10.7-20-10.7H108c-11,0-20,9-20,20s9,20,20,20h4.2
			c-5.3,6.9-8.2,15.3-8.2,24v64c0.1,10.1,6.4,19.2,16,22.6v9.4c0,13.2,10.8,24,24,24h32c13.2,0,24-10.8,24-24v-8h112v8
			c0,13.2,10.8,24,24,24h32c13.2,0,24-10.8,24-24v-9.4c9.6-3.4,15.9-12.4,16-22.6v-64c0-8.7-2.9-17.1-8.2-24h4.2
			C415,352,424,343,424,332L424,332z M158.6,318.3c4.4-17.8,20.4-30.3,38.8-30.3h117.1c18.4,0,34.4,12.5,38.8,30.3l5.8,23
			c-7.4,6.8-17,10.6-27,10.6H179.9c-10,0-19.7-3.8-27-10.6L158.6,318.3z M108,336c-2.2,0-4-1.8-4-4s1.8-4,4-4h11.4
			c2.7,0,5.2,1.4,6.6,3.6l3,4.4H108z M120,395.1l32,10.6v2.2c0,4.4-3.6,8-8,8h-24V395.1z M184,472c0,4.4-3.6,8-8,8h-32
			c-4.4,0-8-3.6-8-8v-8h48V472z M376,472c0,4.4-3.6,8-8,8h-32c-4.4,0-8-3.6-8-8v-8h48V472z M392,416h-24c-4.4,0-8-3.6-8-8v-2.2
			l32-10.6V416z M392,378.2l-42.6,14.2c-3.2,1.1-5.4,4.2-5.4,7.6v8c0,13.2,10.8,24,24,24h24v8c0,4.4-3.6,8-8,8H128c-4.4,0-8-3.6-8-8
			v-8h24c13.2,0,24-10.8,24-24v-8c0-3.4-2.2-6.5-5.4-7.6L120,378.2V376c0-12.1,9-22.2,21-23.7c10.4,10.1,24.4,15.7,38.9,15.7h152.2
			c14.5,0,28.5-5.6,38.9-15.7c12,1.4,21,11.6,21,23.7L392,378.2z M383,336l3-4.4c1.5-2.2,4-3.6,6.6-3.6H404c2.2,0,4,1.8,4,4
			s-1.8,4-4,4H383z"/>
	</g>
</g>
</svg>
