<?xml version="1.0" encoding="utf-8"?>
<!-- Generator: Adobe Illustrator 25.2.1, SVG Export Plug-In . SVG Version: 6.00 Build 0)  -->
<svg version="1.1" id="_x33_0" xmlns="http://www.w3.org/2000/svg" xmlns:xlink="http://www.w3.org/1999/xlink" x="0px" y="0px"
	 viewBox="0 0 512 512" style="enable-background:new 0 0 512 512;" xml:space="preserve">
<style type="text/css">
	.st0{fill:#81A2AE;}
	.st1{fill:#003047;}
</style>
<path class="st0" d="M80,240h8c24.1,0,60.8-23.6,78.6-41.4C178,187.2,208,176,224,176h64c16,0,46,11.2,57.4,22.6
	c17.8,17.8,54.5,41.4,78.6,41.4h8v-32h-8c-16,0-44.3-20.3-56-32c-16-16-48-32-72-32h-80c-24,0-56,16-72,32c-11.7,11.7-40,32-56,32
	h-8V240z"/>
<path class="st0" d="M256,232c-48.5,0-88,39.5-88,88s39.5,88,88,88s88-39.5,88-88S304.5,232,256,232z M288,336c0,4.4-3.6,8-8,8h-24
	h-24c-4.4,0-8-3.6-8-8v-32c0-4.4,3.6-8,8-8h24h24c4.4,0,8,3.6,8,8V336z"/>
<path class="st1" d="M481.9,113.1l5.1-41.1h0.9c8.8,0,16-7.2,16-16V40c0-8.8-7.2-16-16-16h-24V8h-16v16h-24c-8.8,0-16,7.2-16,16v16
	c0,8.8,7.2,16,16,16h0.9l5.1,41.1c1.3,10.3,8.5,18.5,17.9,21.5V152h-16c-13.2,0-24,10.8-24,24c0,10.4,6.7,19.2,16,22.5V424h-16
	V237.3c-5.2-1.6-10.6-3.7-16-6.3v193h-32V211.2c-5.6-4.3-10.6-8.6-14.6-12.6c-0.4-0.4-1-0.8-1.4-1.1V424h-32v-36.2
	c-4.9,4.1-10.3,7.5-16,10.5V424h-32v-72h16c8.8,0,16-7.2,16-16v-32c0-8.8-7.2-16-16-16h-16V144h-16v144h-16c-8.8,0-16,7.2-16,16v32
	c0,8.8,7.2,16,16,16h16v72h-32v-25.7c-5.7-2.9-11.1-6.4-16-10.5V424h-32V197.5c-0.4,0.4-1,0.8-1.4,1.1c-4,4-9,8.3-14.6,12.6V424h-32
	V231c-5.4,2.6-10.8,4.7-16,6.3V424H88V198.5c9.3-3.3,16-12.1,16-22.5c0-13.2-10.8-24-24-24H64v-17.4c9.4-3.1,16.6-11.3,17.9-21.5
	L87.1,72H88c8.8,0,16-7.2,16-16V40c0-8.8-7.2-16-16-16H64V8H48v16H24c-8.8,0-16,7.2-16,16v16c0,8.8,7.2,16,16,16h0.9l5.1,41.1
	c1.3,10.3,8.5,18.5,17.9,21.5V152H32c-13.2,0-24,10.8-24,24c0,10.4,6.7,19.2,16,22.5V504h56h8h336h8h56V198.5
	c9.3-3.3,16-12.1,16-22.5c0-13.2-10.8-24-24-24h-16v-17.4C473.4,131.6,480.6,123.4,481.9,113.1L481.9,113.1z M280,304v32h-16v-32
	H280z M232,336v-32h16v32H232z M24,40h64l0,16H24V40z M70.9,72l-2,16H43.1l-2-16H70.9z M45.1,104h21.9l-0.9,7.1
	c-0.6,5-5,8.9-10.1,8.9s-9.4-3.8-10-8.9L45.1,104z M32,168h48c4.4,0,8,3.6,8,8s-3.6,8-8,8H32c-4.4,0-8-3.6-8-8S27.6,168,32,168z
	 M40,488V200h32v288H40z M88,440h160v48H88V440z M264,488v-48h160v48H264z M440,488V200h32v288H440z M488,176c0,4.4-3.6,8-8,8h-48
	c-4.4,0-8-3.6-8-8s3.6-8,8-8h48C484.4,168,488,171.6,488,176z M424,40h64v16h-64V40z M470.9,72l-2,16h-25.9l-2-16H470.9z M445.1,104
	h21.9l-0.9,7.1c-0.6,5-5,8.9-10.1,8.9s-9.4-3.8-10-8.9L445.1,104z"/>
<path class="st1" d="M200,252.2c4.9-4.1,10.3-7.5,16-10.5v-64.9c-4.9,0.8-10.4,2.2-16,4V252.2z"/>
<path class="st0" d="M136,184c13.2,0,24-10.8,24-24s-10.8-24-24-24c-0.5,0-1,0.1-1.5,0.2c3.6-4.7,9.1-8.2,17.5-8.2
	c9.3,0,15.8,4.8,23.2,10.4c8.5,6.4,18.1,13.6,32.8,13.6c20.4,0,38.2-11,48-27.3c9.8,16.3,27.6,27.3,48,27.3
	c14.7,0,24.3-7.2,32.8-13.6c7.4-5.6,13.9-10.4,23.2-10.4c8.5,0,13.9,3.4,17.5,8.2c-0.5,0-1-0.2-1.5-0.2c-13.2,0-24,10.8-24,24
	s10.8,24,24,24s24-10.8,24-24c0-29.2-15.7-48-40-48c-14.7,0-24.3,7.2-32.8,13.6c-7.4,5.6-13.9,10.4-23.2,10.4c-22.1,0-40-17.9-40-40
	c0-13.5,12.9-24,24-24c13.2,0,24,10.8,24,24c0,4.4-3.6,8-8,8s-8-3.6-8-8v-8h-16v8c0,13.2,10.8,24,24,24s24-10.8,24-24
	c0-22.1-17.9-40-40-40c-12.8,0-24.6,6.8-32,16.8c-7.4-10-19.2-16.8-32-16.8c-22.1,0-40,17.9-40,40c0,13.2,10.8,24,24,24
	s24-10.8,24-24v-8h-16v8c0,4.4-3.6,8-8,8s-8-3.6-8-8c0-13.2,10.8-24,24-24c11.1,0,24,10.5,24,24c0,22.1-17.9,40-40,40
	c-9.3,0-15.8-4.8-23.2-10.4c-8.5-6.4-18.1-13.6-32.8-13.6c-24.3,0-40,18.8-40,48C112,173.2,122.8,184,136,184z M376,168
	c-4.4,0-8-3.6-8-8s3.6-8,8-8s8,3.6,8,8S380.4,168,376,168z M136,152c4.4,0,8,3.6,8,8s-3.6,8-8,8s-8-3.6-8-8S131.6,152,136,152z"/>
<path class="st1" d="M296,241.7c5.7,2.9,11.1,6.4,16,10.5v-71.4c-5.6-1.8-11.1-3.2-16-4V241.7z"/>
</svg>
