<svg id="Layer_1" data-name="Layer 1" xmlns="http://www.w3.org/2000/svg" viewBox="0 0 100 100"><defs><style>.cls-1{fill:#e0a897;}.cls-2{fill:#003047;}</style></defs><path class="cls-1" d="M23.13,59l-1.29-2.84a1.71,1.71,0,0,0-1.56-1h-1a1.72,1.72,0,0,0-1.16,3L26,65.39,23.14,59Z"/><path class="cls-1" d="M77.33,55.16H74.39a1.72,1.72,0,0,0-1.51.89L63.54,73.17a1.7,1.7,0,0,1-1.09.85l-6.87,1.72a1.74,1.74,0,0,1-1.06-.07L37.33,68.79a1.74,1.74,0,0,1-.9-.83L30.5,56.11a1.71,1.71,0,0,0-1.54-1H27.83a1.72,1.72,0,0,0-1.72,1.72,1.6,1.6,0,0,0,.16.71L32.5,71.3,57.52,93H68.91V89.54a1.69,1.69,0,0,1,.51-1.21l1.42-1.43a5.11,5.11,0,0,0,1.51-3.64V72.35a1.74,1.74,0,0,1,.15-.71l6.39-14A1.73,1.73,0,0,0,78,55.31a1.78,1.78,0,0,0-.71-.15Z"/><path class="cls-1" d="M53.44,96.42H70.63v3.44H53.44Z"/><path class="cls-2" d="M87.82,43.12A32.7,32.7,0,0,0,55.16,10.46H44.84A32.7,32.7,0,0,0,12.18,43.12v1.72H87.82Z"/><path class="cls-2" d="M5.3,51.72H94.7A1.72,1.72,0,0,0,96.42,50V48.28H3.58V50A1.72,1.72,0,0,0,5.3,51.72Z"/><path class="cls-2" d="M56.88.14H43.12a1.72,1.72,0,1,0,0,3.44h3.44V7h6.88V3.58h3.44a1.72,1.72,0,0,0,0-3.44Z"/></svg>