<?xml version="1.0" encoding="utf-8"?>
<!-- Generator: Adobe Illustrator 25.2.1, SVG Export Plug-In . SVG Version: 6.00 Build 0)  -->
<svg version="1.1" id="Capa_1" xmlns="http://www.w3.org/2000/svg" xmlns:xlink="http://www.w3.org/1999/xlink" x="0px" y="0px"
	 viewBox="0 0 512 512" style="enable-background:new 0 0 512 512;" xml:space="preserve">
<style type="text/css">
	.st0{fill:#81A2AE;}
	.st1{fill:#003047;}
</style>
<path class="st0" d="M228.3,181h-60.6v70.6h0.6c1.1,7.2,4.5,14,9.7,19.2l25,25v150.1H309V295.7l19.4-25.9c4-5.3,6.5-11.6,7.1-18.3
	l0,0V181L228.3,181L228.3,181z"/>
<rect y="154.5" class="st0" width="35.3" height="53"/>
<rect y="181" class="st0" width="35.3" height="26.5"/>
<g>
	<path class="st0" d="M57.4,110.3L57.4,110.3c12.2,0,22.1,9.9,22.1,22.1v97.1c0,12.2-9.9,22.1-22.1,22.1l0,0
		c-12.2,0-22.1-9.9-22.1-22.1v-97.1C35.3,120.2,45.2,110.3,57.4,110.3z"/>
	<path class="st0" d="M105.9,66.2L105.9,66.2c14.6,0,26.5,11.9,26.5,26.5v176.6c0,14.6-11.9,26.5-26.5,26.5l0,0
		c-14.6,0-26.5-11.9-26.5-26.5V92.7C79.4,78.1,91.3,66.2,105.9,66.2z"/>
</g>
<rect x="476.7" y="154.5" class="st0" width="35.3" height="53"/>
<g>
	<path class="st0" d="M454.6,251.6L454.6,251.6c-12.2,0-22.1-9.9-22.1-22.1v-97.1c0-12.2,9.9-22.1,22.1-22.1l0,0
		c12.2,0,22.1,9.9,22.1,22.1v97.1C476.7,241.7,466.8,251.6,454.6,251.6z"/>
	<path class="st0" d="M406.1,295.7L406.1,295.7c-14.6,0-26.5-11.9-26.5-26.5V92.7c0-14.6,11.9-26.5,26.5-26.5l0,0
		c14.6,0,26.5,11.9,26.5,26.5v176.6C432.6,283.9,420.7,295.7,406.1,295.7z"/>
</g>
<polygon class="st0" points="326.6,154.5 185.4,154.5 132.4,154.5 132.4,207.4 167.7,207.4 244.7,207.4 379.6,207.4 379.6,154.5 "/>
<polygon class="st0" points="326.6,181 185.4,181 132.4,181 132.4,207.4 167.7,207.4 244.7,207.4 379.6,207.4 379.6,181 "/>
<g>
	<path class="st1" d="M203,119.2c-9.8,0-17.7,7.9-17.7,17.7v26.5c0,9.8,7.9,17.7,17.7,17.7s17.7-7.9,17.7-17.7v-26.5
		C220.7,127.1,212.8,119.2,203,119.2z"/>
	<path class="st1" d="M238.3,119.2c-9.8,0-17.7,7.9-17.7,17.7v26.5c0,9.8,7.9,17.7,17.7,17.7s17.7-7.9,17.7-17.7v-26.5
		C256,127.1,248.1,119.2,238.3,119.2z"/>
	<path class="st1" d="M273.7,119.2c-9.8,0-17.7,7.9-17.7,17.7v26.5c0,9.8,7.9,17.7,17.7,17.7s17.7-7.9,17.7-17.7v-26.5
		C291.3,127.1,283.4,119.2,273.7,119.2z"/>
	<path class="st1" d="M309,119.2c-9.8,0-17.7,7.9-17.7,17.7v26.5c0,9.8,7.9,17.7,17.7,17.7s17.7-7.9,17.7-17.7v-26.5
		C326.6,127.1,318.7,119.2,309,119.2z"/>
</g>
<g>
	<path class="st1" d="M57.4,189.8c-12.2,0-22.1-9.9-22.1-22.1v61.8c0,12.2,9.9,22.1,22.1,22.1s22.1-9.9,22.1-22.1v-61.8
		C79.4,179.9,69.6,189.8,57.4,189.8z"/>
	<path class="st1" d="M105.9,189.8c-14.6,0-26.5-11.9-26.5-26.5v105.9c0,14.6,11.9,26.5,26.5,26.5s26.5-11.9,26.5-26.5V163.3
		C132.4,177.9,120.6,189.8,105.9,189.8z"/>
</g>
<rect x="476.7" y="181" class="st0" width="35.3" height="26.5"/>
<g>
	<path class="st1" d="M454.6,189.8c12.2,0,22.1-9.9,22.1-22.1v61.8c0,12.2-9.9,22.1-22.1,22.1s-22.1-9.9-22.1-22.1v-61.8
		C432.6,179.9,442.4,189.8,454.6,189.8z"/>
	<path class="st1" d="M406.1,189.8c14.6,0,26.5-11.9,26.5-26.5v105.9c0,14.6-11.9,26.5-26.5,26.5s-26.5-11.9-26.5-26.5V163.3
		C379.6,177.9,391.4,189.8,406.1,189.8z"/>
</g>
<path class="st1" d="M256,295.7c0-26.5-13.5-48.6-33.5-55.3l-19.5-6.5v-17.7h26.5c6.3,0,12.1-3.4,15.2-8.8c2.4-3.7,3.3-8.1,2.5-12.4
	c-2.2-8.5-10.1-14.4-18.9-14h-60.6v64.8c0,9.4,3.7,18.4,10.3,25l25,25v150.1H309V295.7H256z"/>
</svg>
