<svg id="Layer_1" data-name="Layer 1" xmlns="http://www.w3.org/2000/svg" viewBox="0 0 100 100"><defs><style>.cls-1{fill:#91bcb5;}.cls-1,.cls-2{fill-rule:evenodd;}.cls-2,.cls-4{fill:#003047;}.cls-3{fill:#fff;}</style></defs><path class="cls-1" d="M45.14,60h6.44V96.57H45.14Z"/><path class="cls-1" d="M7,60H13.4V96.57H7Z"/><path class="cls-1" d="M79.64,94.45a14.25,14.25,0,0,0,7.6,2.12h10.1a.92.92,0,0,0,.92-.92V89.93a1,1,0,0,0-1-1h-10a6.63,6.63,0,0,1-3.63-1c-3.73-2.3-6.27-9.22-7.87-13.13C73.4,69,70.61,62,65.05,58.48A14.72,14.72,0,0,0,57,56.18H51.58l-3.46,3.27,3.46,4.34H57a7.16,7.16,0,0,1,4,1.11c3.7,2.36,6.17,8.89,7.77,12.82,2.42,5.94,5.21,13.2,10.91,16.73Z"/><path class="cls-1" d="M29.27,14.5,50.34,35.57a3.67,3.67,0,0,0,1.24.82,3.78,3.78,0,0,0,4.12-6.17L32,6.47a3.79,3.79,0,0,0-5.36,0L2.84,30.22a3.75,3.75,0,0,0-1.1,2.66v0A3.77,3.77,0,0,0,7,36.39a3.67,3.67,0,0,0,1.24-.82Z"/><path class="cls-1" d="M67.08,28.23H88.41A9.85,9.85,0,1,0,87.33,8.6a11.48,11.48,0,0,0-21.89,4.86,12.19,12.19,0,0,0,.14,1.82,6.56,6.56,0,0,0,1.5,13Z"/><path class="cls-2" d="M50.34,30.52,29.27,9.45,8.2,30.52A3.67,3.67,0,0,1,7,31.34V63.79H20.52V55.11a8.75,8.75,0,0,1,17.5,0v8.68H51.58V31.34A3.67,3.67,0,0,1,50.34,30.52Z"/><path class="cls-3" d="M29.27,39.4a5.32,5.32,0,1,1,5.32-5.31A5.32,5.32,0,0,1,29.27,39.4Z"/><path class="cls-4" d="M35.13,62.33a1.46,1.46,0,0,0-1.46,1.46v6.95h-8.8V63.79a1.46,1.46,0,1,0-2.91,0V96.57a1.46,1.46,0,1,0,2.91,0V90.46h8.8v6.11a1.46,1.46,0,1,0,2.91,0V63.79A1.45,1.45,0,0,0,35.13,62.33ZM33.67,73.65v5.5h-8.8v-5.5Zm-8.8,13.9V82.06h8.8v5.49Z"/><path class="cls-4" d="M98.26,95.11H1.74a1.46,1.46,0,1,0,0,2.92H98.26a1.46,1.46,0,1,0,0-2.92Z"/></svg>