<?xml version="1.0" encoding="utf-8"?>
<!-- Generator: Adobe Illustrator 25.2.1, SVG Export Plug-In . SVG Version: 6.00 Build 0)  -->
<svg version="1.1" id="Layer_1" xmlns="http://www.w3.org/2000/svg" xmlns:xlink="http://www.w3.org/1999/xlink" x="0px" y="0px"
	 viewBox="0 0 512 512" style="enable-background:new 0 0 512 512;" xml:space="preserve">
<style type="text/css">
	.st0{fill:#003047;}
	.st1{fill:#81A2AE;}
	.st2{fill:#CF5252;}
	.st3{fill:#FDC9A6;}
	.st4{fill:#F6BB92;}
</style>
<g id="flat">
	<path class="st0" d="M440,224h-17.2c-9.1,0-17.4-5.1-21.5-13.3L392,192h48V224z"/>
	<path class="st0" d="M440,224h17.2c9.1,0,17.4-5.1,21.5-13.3L488,192h-48V224z"/>
	<path class="st1" d="M440,160l-10.6,15.9c-3.5,5.3-5.4,11.4-5.4,17.8v1.1c0,8.5,3.4,16.6,9.4,22.6l6.6,6.6l6.6-6.6
		c6-6,9.4-14.1,9.4-22.6v-1.1c0-6.3-1.9-12.5-5.4-17.8L440,160z"/>
	<path class="st0" d="M176,392l16-16l8-24h112l8,24l16,16l16,12.8L256,456l-96-48L176,392z"/>
	<path class="st2" d="M252.3,432l-4,20.1L160,408l16-16l3.5-3.5L252.3,432z"/>
	<path class="st2" d="M352,404.8l-84.4,45L264,432l70.1-41.9l1.9,1.9L352,404.8z"/>
	<path class="st3" d="M192,203l-17.2,5.6c-9.4,4.7-16.3,13.3-18.8,23.5L136,312l-64,40l-24-8l-24,8l8,40l119.1-37.2
		c5.7-1.8,10.4-5.8,13.1-11.2L192,288V203z"/>
	<path class="st3" d="M320,203l17.2,5.6c9.4,4.7,16.3,13.3,18.8,23.5l20,79.9l64,40l24-8l24,8l-8,40l-119.1-37.2
		c-5.7-1.8-10.4-5.8-13.1-11.2L320,288V203z"/>
	<path class="st1" d="M280,64l-2.8-13.9c-3-15.2-16.3-26.1-31.8-26.1c-8.6,0-16.8,3.4-22.9,9.5C203,53,192,79.5,192,107.1v2.3
		c0,16.6-8.3,32.1-22.1,41.4L168,152l6.2,3.1c16,8,35,6.8,49.8-3.1L280,64z"/>
	<path class="st3" d="M288,193.6l-8-1.6v-32h-48v32l-8,1.6V232l32,24l32-24V193.6z"/>
	<path class="st3" d="M280,160v8c-14.2,10.7-33.8,10.7-48,0v-8H280z"/>
	<path class="st0" d="M288,193.6l32,9.4v37c9.5,14.3,8.7,33.1-2,46.5L304,304h-96l-14-17.5c-10.7-13.4-11.5-32.2-2-46.5v-37l32-9.4
		V232l32,24l32-24V193.6z"/>
	<path class="st3" d="M208,304v13.6c0,6.9-1.1,13.7-3.3,20.2L200,352h112l-4.7-14.1c-2.2-6.5-3.3-13.4-3.3-20.2V304H208z"/>
	<path class="st1" d="M352,404.8L336,392l-1.9-1.9L264,432h-11.7l-72.8-43.5L176,392l-16,16l88.3,40h19.3L352,404.8z"/>
	<path class="st4" d="M280,160v8c-14.2,10.7-33.8,10.7-48,0v-8H280z"/>
	<path class="st0" d="M72,232H54.8c-9.1,0-17.4-5.1-21.5-13.3L24,200h48V232z"/>
	<path class="st0" d="M72,232h17.2c9.1,0,17.4-5.1,21.5-13.3L120,200H72L72,232z"/>
	<path class="st0" d="M272,480l140-57.2c15-7.9,20.7-26.5,12.7-41.4c-0.2-0.3-0.3-0.6-0.5-0.9c-8.4-14.7-27.1-19.8-41.8-11.4
		c-0.6,0.3-1.2,0.7-1.8,1.1L264,440L272,480z"/>
	<path class="st0" d="M244.3,480l-140-57.2c-15-7.9-20.7-26.5-12.7-41.4c0.2-0.3,0.3-0.6,0.5-0.9c8.4-14.7,27.1-19.8,41.8-11.4
		c0.6,0.3,1.2,0.7,1.8,1.1L252.3,440L244.3,480z"/>
	<path class="st3" d="M264,440l-40,8l-24-8l-16,16l8,24h80L264,440z"/>
	<path class="st3" d="M296,112v16c0,22.1-17.9,40-40,40s-40-17.9-40-40V96c0-4.2,0.7-8.5,2-12.5L296,112z"/>
	<path class="st1" d="M296,96v16c-26,0-51.2-8.4-72-24l-6-4.5c6.9-21,29.5-32.4,50.5-25.5C284.9,63.4,296,78.7,296,96z"/>
	<path class="st1" d="M72,168l-10.6,15.9c-3.5,5.3-5.4,11.4-5.4,17.8v1.1c0,8.5,3.4,16.6,9.4,22.6L72,232l6.6-6.6
		c6-6,9.4-14.1,9.4-22.6v-1.1c0-6.3-1.9-12.5-5.4-17.8L72,168z"/>
</g>
</svg>
