<?xml version="1.0" encoding="utf-8"?>
<!-- Generator: Adobe Illustrator 25.2.1, SVG Export Plug-In . SVG Version: 6.00 Build 0)  -->
<svg version="1.1" id="Capa_1" xmlns="http://www.w3.org/2000/svg" xmlns:xlink="http://www.w3.org/1999/xlink" x="0px" y="0px"
	 viewBox="0 0 512 512" style="enable-background:new 0 0 512 512;" xml:space="preserve">
<style type="text/css">
	.st0{fill:#81A2AE;}
	.st1{fill:#003047;}
</style>
<g>
	<path class="st0" d="M115,92c-25.4,0-46-20.6-46-46S89.6,0,115,0s46,20.6,46,46S140.4,92,115,92z"/>
	<g>
		<path class="st1" d="M491.4,279.2c5.8-1.9,11.2-5.6,15.1-11.2c2.8-4,4.6-8.7,5.2-13.5c1.1-9.4-2-18.4-8.6-24.9L389.4,115.8
			c-9.2,4-19.4,6.2-30,6.2c-19.1,0-36.5-7.1-49.8-18.7c-11.3,5.5-21.8,12.8-31,21.9c-9.7,9.6-17.5,20.6-23.1,32.6l26.9,7.3
			c15.5,4.2,28.4,14.2,36.3,28.1c8,13.9,10,30.1,5.8,45.6c-4.2,15.5-14.2,28.4-28.1,36.3c-9.1,5.2-19.3,7.9-29.7,7.9
			c-5.3,0-10.7-0.7-15.8-2.1l-6.4-1.7V332c0,8.3,6.7,15,15,15h135.4l17.9-80.6L350.3,204c-5.7-5.7-6.2-15-0.8-21
			c5.8-6.4,15.7-6.6,21.7-0.5l89.5,89.5c0.1,0.1,0.3,0.3,0.4,0.4c-22.1,2.9-39.2,21.8-39.2,44.6v9.6c0,8.1,6.2,15,14.3,15.4
			c8.6,0.4,15.7-6.5,15.7-15v-9.6c0-8.1,6.2-15,14.2-15.4c8.6-0.4,15.8,6.5,15.8,15v179.6c0,8.1,6.2,15,14.3,15.4
			c8.6,0.4,15.7-6.5,15.7-15V317C512,301.2,503.8,287.3,491.4,279.2L491.4,279.2z"/>
		<circle class="st0" cx="359.4" cy="46" r="46"/>
		<path class="st0" d="M274.4,497c0,8.3,6.7,15,15,15h70c7.5,0,13.9-5.6,14.9-13l15.3-122H274.4V497z"/>
		<g>
			<g>
				<path class="st0" d="M27.1,377L1,474.2c-4.3,16,5.2,32.5,21.2,36.7s32.5-5.2,36.7-21.2l13.5-50.5L55.8,377L27.1,377z"/>
			</g>
			<path class="st0" d="M149,377H86.9l30.2,112.8c4.3,16,20.7,25.5,36.7,21.2c16-4.3,25.5-20.7,21.2-36.7L149,377z"/>
		</g>
	</g>
	<g>
		<path class="st1" d="M118,244.6c-14.8-4-27.3-14.1-34.3-27.7l-5-9.7c-3.8-7.4-0.9-16.4,6.4-20.2s16.4-0.9,20.2,6.4l5,9.7
			c3.2,6.2,8.9,10.7,15.5,12.6l132.9,36.2c2.6,0.7,5.3,1.1,7.9,1.1c6.6,0,13.2-2.2,18.7-6.5c3.9-3.1,7-7.1,8.9-11.7
			c3.7-8.9,3.1-18.6-1.5-26.7c-4-7-10.4-11.9-18.2-14.1l-109.5-29.9l-26.3-46c-7.5,2.5-15.4,3.8-23.7,3.8c-19,0-36.4-7-49.8-18.7
			C26.7,121.9,0,161.4,0,207v125c0,8.3,6.7,15,15,15h130c8.3,0,15-6.7,15-15v-75.9L118,244.6z"/>
	</g>
</g>
</svg>
