<svg id="Layer_1" data-name="Layer 1" xmlns="http://www.w3.org/2000/svg" viewBox="0 0 100 100"><defs><style>.cls-1{fill:#91bcb5;}.cls-2{fill:#003047;}.cls-3{fill:none;stroke:#91bcb5;stroke-linecap:round;stroke-linejoin:round;stroke-width:3px;}</style></defs><path class="cls-1" d="M55.91,73.11V59.57H44.09V73.11a56,56,0,0,1-5.9,25H61.81a56,56,0,0,1-5.9-25Z"/><path class="cls-2" d="M85.84,25.91c7,2.41,12.68,9,12.6,16.89-.1,9-7.38,15.92-15.24,17.26A18.92,18.92,0,0,1,69.27,57a5.84,5.84,0,0,0-6.65-.37,23.25,23.25,0,0,1-25.23,0,5.86,5.86,0,0,0-6.66.37A18.92,18.92,0,0,1,16.8,60.06c-8-1.35-15.24-8.4-15.24-17.46,0-7.77,5.63-14.3,12.6-16.69,1-7.24,7.67-12.84,15.17-12.84a14.94,14.94,0,0,1,3.86.57,17.6,17.6,0,0,1,33.62,0,14.94,14.94,0,0,1,3.86-.57c7.5,0,14.21,5.6,15.17,12.84Z"/><line class="cls-3" x1="1.56" y1="97.24" x2="98.44" y2="97.24"/><path class="cls-3" d="M23.42,87.19a7.86,7.86,0,0,0-5.91,2.67,7.83,7.83,0,0,0-5.91-2.67"/><line class="cls-3" x1="17.51" y1="97.24" x2="17.51" y2="89.86"/><path class="cls-3" d="M88.4,87.19a7.83,7.83,0,0,0-5.91,2.67,7.86,7.86,0,0,0-5.91-2.67"/><line class="cls-3" x1="82.49" y1="97.24" x2="82.49" y2="89.86"/></svg>