<?xml version="1.0" encoding="utf-8"?>
<!-- Generator: Adobe Illustrator 25.2.1, SVG Export Plug-In . SVG Version: 6.00 Build 0)  -->
<svg version="1.1" id="Layer_1" xmlns="http://www.w3.org/2000/svg" xmlns:xlink="http://www.w3.org/1999/xlink" x="0px" y="0px"
	 viewBox="0 0 512 512" style="enable-background:new 0 0 512 512;" xml:space="preserve">
<style type="text/css">
	.st0{fill:#81A2AE;}
	.st1{fill:#003047;}
</style>
<path class="st0" d="M257.8,152c-8.8-1-16.7,5.3-17.7,14c0,0.1,0,0.1,0,0.2l-6.9,62l-46.5,16c-2.2,0.8-4.1,2-5.8,3.6H176v-3.4
	c20.2-8.8,29.5-32.4,20.7-52.7c-8.8-20.2-32.4-29.5-52.7-20.7c-20.2,8.8-29.5,32.4-20.7,52.7c4,9.2,11.4,16.6,20.7,20.7v3.5h-8
	c-3.6,0.5-7.1,1.5-10.4,3l-42,33.3L42.4,278c-8.7-1.4-16.9,4.6-18.3,13.4c-1.2,7.8,3.4,15.3,10.9,17.7c0.8,0.3,1.7,0.5,2.6,0.6
	l48,7.3c4.4,0.7,8.8-0.5,12.3-3.3L120,296v119.2l-64.9,43.5c-7.6,4.5-10.1,14.3-5.6,21.9s14.3,10.1,21.9,5.6c0.5-0.3,1-0.6,1.5-1
	l72-48c4.4-3,7.1-7.9,7.1-13.3v-64h17.7l46.3,46.6V472c0,8.8,7.2,16,16,16s16-7.2,16-16v-72c0-4.2-1.7-8.3-4.6-11.3L200,345.1v-71.4
	l53.3-18.6c5.9-2,10-7.2,10.7-13.4l8-72c1-8.8-5.3-16.7-14-17.7C257.9,152,257.8,152,257.8,152L257.8,152z"/>
<g>
	<path class="st1" d="M267.8,157.4l1.1,1.3L267.8,157.4z"/>
	<path class="st1" d="M269.7,160l0.7,1.3L269.7,160z"/>
	<path class="st1" d="M271,162.6l0.5,1.2L271,162.6z"/>
	<path class="st1" d="M272,166.7c0-0.4,0-0.7,0-1.1C272,166,272,166.3,272,166.7z"/>
	<path class="st1" d="M267.1,156.6l-1.4-1.2L267.1,156.6z"/>
	<path class="st1" d="M263.2,153.8c0.6,0.3,1.2,0.7,1.8,1.1C264.4,154.5,263.8,154.1,263.2,153.8z"/>
	<path class="st1" d="M260.5,152.6l2.2,0.9L260.5,152.6z"/>
	<path class="st1" d="M252.5,208.6l8-56c-8.5-2.5-17.4,2.3-19.9,10.8c-0.3,1-0.5,1.9-0.6,2.9l-6.9,62l-46.5,16
		c-2.2,0.8-4.1,2-5.8,3.6H176v-3.4c6.3-2.7,11.8-7,16-12.5c-26.5-0.1-47.9-21.7-47.8-48.2c0-4.4,0.6-8.8,1.9-13.1
		c-20.6,7.9-31,31-23.2,51.6c3.8,9.9,11.4,18,21.1,22.3v3.4h-8c-3.6,0.5-7.1,1.5-10.4,3l-42,33.3L43,278.1
		c-7.5-1.2-14.9,2.9-17.8,9.9c-3.3,8.2,0.8,17.5,9,20.8c0.3,0.1,0.6,0.2,1,0.3c0.8,0.3,1.7,0.5,2.6,0.6l48,7.3
		c4.4,0.7,8.8-0.5,12.3-3.3L120,296v119.2l-64,43c-7.1,4.5-9.7,13.5-6.1,21c4,7.9,13.7,11,21.5,6.9c0.5-0.3,1.1-0.6,1.6-0.9l72-48
		c4.4-3,7-8,7-13.3v-8c-8.8,0-16-7.2-16-16v-8c0-8.8,7.2-16,16-16v-16h17.7l46.3,46.6v64.5c-0.3,8.1,5.3,15.3,13.3,16.9
		c8.7,1.5,17-4.3,18.5-13c0.2-1,0.2-2,0.2-3c-8.8,0-16-7.2-16-16v-32c0-8.8,7.2-16,16-16v-8c0-4.2-1.7-8.3-4.6-11.3L200,345.1V336
		c-8.8,0-16-7.2-16-16v-24c0-8.8,7.2-16,16-16v-6.3l53.3-18.6c5.9-2,10-7.2,10.7-13.4l1.8-17.8c-7.5-0.1-13.5-6.2-13.5-13.7
		C252.4,209.7,252.4,209.1,252.5,208.6L252.5,208.6z"/>
</g>
<path class="st0" d="M469.3,88c-8,1.6-13.6,8.8-13.3,16.9V208c0,4.4-3.6,8-8,8h-40v-3.4c20.2-8.8,29.5-32.4,20.7-52.7
	c-8.8-20.2-32.4-29.5-52.7-20.7c-20.2,8.8-29.5,32.4-20.7,52.7c4,9.2,11.4,16.6,20.7,20.7v3.4h-5c-1.6-1.6-3.6-2.8-5.8-3.6l-46.5-16
	l-6.8-61.3c-0.8-8.4-7.6-14.8-16-15.1c-8.8-0.1-16,7.1-16.1,15.9c0,0.6,0,1.2,0.1,1.9l8,72c0.7,6.1,4.8,11.3,10.6,13.4l53.4,18.6
	v71.4l-43.4,43.6c-3,3-4.6,7.1-4.6,11.3v71.1c-0.3,8.1,5.3,15.3,13.3,16.9c8.7,1.5,17-4.3,18.5-13c0.2-1,0.2-2,0.2-3v-65.4
	l46.3-46.6H400v143.1c-0.3,8.1,5.3,15.3,13.3,16.9c8.7,1.5,17-4.3,18.5-13c0.2-1,0.2-2,0.2-3V248h16c22.1,0,40-17.9,40-40V104
	c0.1-8.8-6.9-16.1-15.8-16.2C471.2,87.8,470.3,87.8,469.3,88z"/>
<path class="st1" d="M472,176V88c-0.9-0.1-1.8-0.1-2.7,0c-8,1.6-13.6,8.8-13.3,16.9V208c0,4.4-3.6,8-8,8h-40v-3.4
	c9.3-4,16.7-11.4,20.7-20.6c-1.6,0.1-3.1,0.1-4.7,0c-26.5,0-48-21.5-48-48c-0.1-1.6-0.1-3.1,0-4.7c-20.3,8.8-29.5,32.4-20.7,52.6
	c4,9.3,11.4,16.7,20.7,20.7v3.4h-5c-1.6-1.6-3.6-2.8-5.8-3.6l-46.5-16l-1.8-16c-7.7-0.4-14-6.4-15-14.1l-5.1-46.3H296
	c-8.8-0.1-16,7.1-16.1,15.9c0,0.6,0,1.2,0.1,1.9l8,72c0.7,6.1,4.8,11.3,10.6,13.4l53.4,18.6v71.4l-43.4,43.6c-3,3-4.6,7.1-4.6,11.3
	v71.1c-0.3,8.1,5.3,15.3,13.3,16.9c8.7,1.5,17-4.3,18.5-13c0.2-1,0.2-2,0.2-3v-65.4l46.3-46.6H400v143.1
	c-0.3,8.1,5.3,15.3,13.3,16.9c8.7,1.5,17-4.3,18.5-13c0.2-1,0.2-2,0.2-3v-1.4c-9.6-3.4-16-12.4-16-22.6V280c0-8.8,7.2-16,16-16v-16
	h16c22.1,0,40-17.9,40-40v-9.4C478.4,195.2,472,186.1,472,176z"/>
<path class="st0" d="M128,24H64c-4.4,0-8,3.6-8,8v41.4C43.5,69,29.8,75.6,25.4,88.1s2.1,26.2,14.6,30.6c12.5,4.4,26.2-2.1,30.6-14.6
	c0.9-2.6,1.4-5.3,1.4-8.1V72h48v17.4c-12.5-4.4-26.2,2.1-30.6,14.6c-4.4,12.5,2.1,26.2,14.6,30.6s26.2-2.1,30.6-14.6
	c0.9-2.6,1.4-5.3,1.4-8.1V32C136,27.6,132.4,24,128,24z M48,104c-4.4,0-8-3.6-8-8s3.6-8,8-8s8,3.6,8,8S52.4,104,48,104z M72,40h48
	v16H72V40z M112,120c-4.4,0-8-3.6-8-8s3.6-8,8-8s8,3.6,8,8S116.4,120,112,120z"/>
<path class="st0" d="M456,56c-0.5-2.1-1.8-3.9-3.5-5l-40.6-25.7c-3.7-2.4-8.7-1.3-11,2.4l-16.8,27l-14.1,21.5c-1.7-2.2-3.7-4-6-5.5
	c-11.5-6.7-26.1-2.8-32.8,8.7c-6.3,10.8-3.2,24.6,7,31.7c3.8,2.5,8.3,3.8,12.9,3.8c8.2-0.1,15.8-4.1,20.3-10.9l21.4-33.8l33.8,21.5
	c1.3,0.8,2.8,1.3,4.3,1.3c2.7,0,5.3-1.4,6.7-3.7l17.2-27C456,60.5,456.5,58.2,456,56L456,56z M352.7,98.6c-2.1,0.5-4.2,0.1-6-1
	c-3.7-2.4-4.8-7.3-2.4-11.1c1.5-2.3,4-3.7,6.7-3.7c1.5,0,3,0.4,4.3,1.2c1.8,1.2,3,3,3.4,5c0.5,2.1,0.1,4.2-1,6
	C356.6,96.9,354.8,98.2,352.7,98.6z M428.3,73.8l-27-17.2L410,43l27,17.2L428.3,73.8z"/>
<path class="st0" d="M251,54.9c-3.7-2.4-8.7-1.3-11,2.5c0,0,0,0,0,0l-13.8,21.4c-1.6-2.2-3.6-4-5.9-5.5c-11.2-7.1-26-3.9-33.1,7.3
	c-3.5,5.3-4.7,11.9-3.2,18.1c2.4,11,12.1,18.8,23.4,18.9c1.7,0,3.5-0.2,5.2-0.6c6.2-1.4,11.6-5.1,15-10.5L253.4,66
	C255.9,62.3,254.8,57.3,251,54.9C251.1,54.9,251.1,54.9,251,54.9L251,54.9z M209.1,101.3c-4.3,1.2-8.7-1.3-9.9-5.5
	c-1.2-4.3,1.3-8.7,5.5-9.9c0.3-0.1,0.6-0.1,0.9-0.2c0.6-0.1,1.2-0.1,1.8,0c4.4,0,8,3.6,7.9,8.1c0,1.5-0.4,2.9-1.2,4.2
	C213,99.7,211.2,100.9,209.1,101.3z"/>
<path class="st0" d="M296,40c-4.4,0-8,3.6-8,8v32c0,4.4,3.6,8,8,8s8-3.6,8-8V48C304,43.6,300.4,40,296,40z"/>
<path class="st0" d="M56,176c-4.4,0-8,3.6-8,8v24c0,4.4,3.6,8,8,8s8-3.6,8-8v-24C64,179.6,60.4,176,56,176z"/>
<circle class="st0" cx="216" cy="152" r="8"/>
<circle class="st0" cx="176" cy="40" r="8"/>
</svg>
