<svg id="Layer_1" data-name="Layer 1" xmlns="http://www.w3.org/2000/svg" viewBox="0 0 100 100"><defs><style>.cls-1{fill:#27241f;}.cls-1,.cls-3{fill-rule:evenodd;}.cls-2{fill:#003047;}.cls-3{fill:#81a2ae;}</style></defs><path class="cls-1" d="M33,12.93h0l-.23-.31C32.79,12.72,32.87,12.82,33,12.93Z"/><path class="cls-2" d="M35.49,30H60.06v6.14H35.49ZM36,57.19V54.93h6.31a33.6,33.6,0,0,0,6.62-4.75c.72-.65,1.36-1.17,2-1.73H36v-6H60v.06A26.55,26.55,0,0,1,65.08,41V13.31c0-.09,0-.19,0-.28v-.37c0-8.59,5-7.22,5-7.22,3,.3,3.63,4.51,3.78,6.91.15,1.52,1.19,1.64,1.19,1.64h2.29c.88,0,1.07-.68,1.07-1.21,0-.18,0-.37-.06-.59v0a39.08,39.08,0,0,0-1.07-5.94,8.94,8.94,0,0,0-1.13-2c-.1-.12-.19-.25-.28-.37a2.69,2.69,0,0,0-.33-.34,7.5,7.5,0,0,0-.73-.66,7.86,7.86,0,0,0-.8-.59s0,0,0,0a10,10,0,0,0-1.62-.78A11.33,11.33,0,0,0,70.33.89c-.34,0-.64-.06-1-.06h-.21A9.28,9.28,0,0,0,60,10.17V23.3H36v-10c0-.09,0-.19,0-.28v-.37c0-8.59,5-7.22,5-7.22,2.92.3,3.62,4.51,3.77,6.91C45,13.87,46,14,46,14h2.29c.88,0,1.06-.68,1.06-1.21,0-.18,0-.37-.06-.59v0a36.76,36.76,0,0,0-1.07-5.94,8.54,8.54,0,0,0-1.12-2l-.28-.37a2.69,2.69,0,0,0-.33-.34,6.59,6.59,0,0,0-.74-.66A7.73,7.73,0,0,0,45,2.23a0,0,0,0,0,0,0,9.66,9.66,0,0,0-1.62-.78,11.26,11.26,0,0,0-2.1-.53c-.34,0-.64-.06-1-.06H40a9.27,9.27,0,0,0-9.15,9.34V57.63A26.41,26.41,0,0,0,36,57.19Z"/><path class="cls-3" d="M94,54.41C80.41,44.87,67.27,48.3,67.27,48.3,62.09,49.37,57.11,50,47.16,58.9S29.82,67.38,22.4,67,7.5,60.07,5.91,58.49a3.28,3.28,0,0,0-3.34-.63c-1.64.69-2,2.93-2.11,4.42V94.09c0,2.78,3.05,5.08,6.77,5.08H92.77c3.75,0,6.77-2.3,6.77-5.08V62.67c-.08-1.5-.41-3.65-1.56-4.93-1.09-1.06-2.53-2.14-4-3.33Z"/></svg>