<svg id="Layer_1" data-name="Layer 1" xmlns="http://www.w3.org/2000/svg" viewBox="0 0 100 100"><defs><style>.cls-1{fill:none;stroke:#91bcb5;stroke-linecap:round;stroke-linejoin:round;stroke-width:3px;}.cls-2{fill:#91bcb5;}.cls-3{fill:#003047;}</style></defs><path class="cls-1" d="M50,51.92V7.83a5.94,5.94,0,0,1,11.88,0"/><path class="cls-2" d="M73.83,16.12a.29.29,0,0,0-.46,0c-.14.2-3.28,4.87-3.28,6.72a3.52,3.52,0,0,0,7,0C77.12,21,74,16.32,73.83,16.12Z"/><path class="cls-2" d="M61.1,33.92a.22.22,0,0,0-.36,0c-.1.15-2.5,3.71-2.5,5.13a2.69,2.69,0,0,0,5.37,0C63.61,37.63,61.2,34.07,61.1,33.92Z"/><path class="cls-2" d="M26.49,15.81a.35.35,0,0,0-.56,0c-.17.24-4,5.89-4,8.13a4.26,4.26,0,1,0,8.51,0C30.46,21.7,26.65,16.05,26.49,15.81Z"/><path class="cls-2" d="M35.56,41a.18.18,0,0,0-.29,0c-.09.12-2.06,3-2.06,4.21a2.21,2.21,0,1,0,4.41,0C37.62,44,35.64,41.07,35.56,41Z"/><path class="cls-3" d="M50.08,51.75a3.83,3.83,0,0,1-.28.29c-2.59,2.59-7.59,4-11.25,4a13.72,13.72,0,0,1-10.33-4.7,1.47,1.47,0,0,0-2.23,0c-.21.24-.43.47-.65.69a13.71,13.71,0,0,1-20-.69,1.47,1.47,0,0,0-1.64-.41,1.42,1.42,0,0,0-.53.34,1.47,1.47,0,0,0-.43,1A47.34,47.34,0,0,0,37.81,98a47.76,47.76,0,0,0,26.55-.63A47.37,47.37,0,0,0,97.28,52.33a1.48,1.48,0,0,0-2.6-1c-.21.24-.42.47-.64.69a13.72,13.72,0,0,1-20-.69,1.47,1.47,0,0,0-2.23,0c-.21.24-.42.47-.64.69a13.61,13.61,0,0,1-9.69,4c-3.78,0-8.74-1.56-11.32-4.3"/></svg>