<?xml version="1.0" encoding="utf-8"?>
<!-- Generator: Adobe Illustrator 25.2.1, SVG Export Plug-In . SVG Version: 6.00 Build 0)  -->
<svg version="1.1" id="Layer_1" xmlns="http://www.w3.org/2000/svg" xmlns:xlink="http://www.w3.org/1999/xlink" x="0px" y="0px"
	 viewBox="0 0 512 512" style="enable-background:new 0 0 512 512;" xml:space="preserve">
<style type="text/css">
	.st0{fill:#003047;}
	.st1{fill:#81A2AE;}
</style>
<path class="st0" d="M461.8,227.3c-3.7-2.8-8.5-3.7-12.9-2.5c-3.9,1.1-8,1.7-12,1.7c-25.1,0-45.5-21-45.5-46.8
	c0-8.2-6.6-14.8-14.8-14.8c-8.2,0-14.8,6.6-14.8,14.8c0,25.8-20.4,46.8-45.5,46.8s-45.5-21-45.5-46.8c0-8.2-6.6-14.8-14.8-14.8
	s-14.8,6.6-14.8,14.8c0,25.8-20.4,46.8-45.5,46.8s-45.5-21-45.5-46.8c0-8.2-6.6-14.8-14.8-14.8c-8.2,0-14.8,6.6-14.8,14.8
	c0,25.8-20.4,46.8-45.5,46.8c-4,0-8.1-0.6-12-1.7c-4.5-1.2-9.2-0.3-12.9,2.5s-5.8,7.1-5.8,11.8v194.2c0,8.2,6.6,14.8,14.8,14.8
	h393.8c8.2,0,14.8-6.6,14.8-14.8V239C467.7,234.4,465.5,230.1,461.8,227.3z"/>
<path class="st0" d="M511.9,175.6c-0.2-2.3-1-4.5-2.3-6.5l-34.3-52.8c-0.1-0.1-0.1-0.2-0.2-0.3l-27-41.6V44.3
	C448,19.9,428.1,0,403.7,0H108.3C83.9,0,64,19.9,64,44.3v30.1L2.4,169.1c-0.7,1-1.2,2.1-1.6,3.2c-0.5,1.5-0.8,3.3-0.8,4.9
	c0,8.2,6.6,14.8,14.8,14.8h482.4c8.2,0,14.8-6.6,14.8-14.8C511.9,176.7,511.9,176.1,511.9,175.6z"/>
<path class="st1" d="M511.9,176.7c-0.3-7.9-6.8-14.2-14.8-14.2H376.7c0,0,0,0,0,0c0,0,0,0-0.1,0H256.1c0,0,0,0-0.1,0s0,0-0.1,0
	H135.4c0,0,0,0-0.1,0c0,0,0,0,0,0H14.8c-8,0-14.5,6.3-14.8,14.2c0,1-0.1,2-0.1,3C0,221.8,33.7,256,75.1,256
	c24.7,0,46.6-12.2,60.3-30.9c13.7,18.7,35.6,30.9,60.3,30.9c24.7,0,46.6-12.2,60.3-30.9c13.7,18.7,35.6,30.9,60.3,30.9
	c24.7,0,46.6-12.2,60.3-30.9c13.7,18.7,35.6,30.9,60.3,30.9c41.4,0,75.1-34.2,75.1-76.3C512,178.7,512,177.7,511.9,176.7z"/>
<path class="st1" d="M384,93.5H128c-8.2,0-14.8-6.6-14.8-14.8S119.8,64,128,64h256c8.2,0,14.8,6.6,14.8,14.8S392.2,93.5,384,93.5z"
	/>
<path class="st0" d="M461.8,227.3c-3.7-2.8-8.5-3.7-12.9-2.5c-3.9,1.1-8,1.7-12,1.7c-25.1,0-45.5-21-45.5-46.8
	c0-8.2-6.6-14.8-14.8-14.8c-8.2,0-14.8,6.6-14.8,14.8c0,25.8-20.4,46.8-45.5,46.8s-45.5-21-45.5-46.8c0-8.2-6.6-14.8-14.8-14.8V448
	h196.9c8.2,0,14.8-6.6,14.8-14.8V239C467.7,234.4,465.5,230.1,461.8,227.3z"/>
<path class="st0" d="M511.9,175.6c-0.2-2.3-1-4.5-2.3-6.5l-34.3-52.8c-0.1-0.1-0.1-0.2-0.2-0.3l-27-41.6V44.3
	C448,19.9,428.1,0,403.7,0H256v192h241.2c8.2,0,14.8-6.6,14.8-14.8C511.9,176.7,511.9,176.1,511.9,175.6z"/>
<path class="st1" d="M511.9,176.7c-0.3-7.9-6.8-14.2-14.8-14.2H376.7c0,0,0,0,0,0c0,0,0,0-0.1,0H256.1c0,0,0,0-0.1,0v62.6
	c13.7,18.7,35.6,30.9,60.3,30.9c24.7,0,46.6-12.2,60.3-30.9c13.7,18.7,35.6,30.9,60.3,30.9c41.4,0,75.1-34.2,75.1-76.3
	C512,178.7,512,177.7,511.9,176.7z"/>
<path class="st1" d="M384,64H256v29.5h128c8.2,0,14.8-6.6,14.8-14.8S392.2,64,384,64z"/>
<path class="st1" d="M196.9,280.6h-39.4c-24.4,0-44.3,19.9-44.3,44.3v108.3c0,8.2,6.6,14.8,14.8,14.8h98.5c8.2,0,14.8-6.6,14.8-14.8
	V324.9C241.2,300.5,221.4,280.6,196.9,280.6z"/>
<path class="st1" d="M196.9,280.6h-19.7V448h49.2c8.2,0,14.8-6.6,14.8-14.8V324.9C241.2,300.5,221.4,280.6,196.9,280.6z"/>
<path class="st1" d="M354.5,280.6h-39.4c-24.4,0-44.3,19.9-44.3,44.3c0,24.4,19.9,44.3,44.3,44.3h39.4c24.4,0,44.3-19.9,44.3-44.3
	C398.8,300.5,378.9,280.6,354.5,280.6z"/>
<path class="st1" d="M465.2,418.5H46.8C21,418.5,0,439.4,0,465.2S21,512,46.8,512h418.5c25.8,0,46.8-21,46.8-46.8
	S491,418.5,465.2,418.5z"/>
<path class="st1" d="M465.2,418.5H256V512h209.2c25.8,0,46.8-21,46.8-46.8S491,418.5,465.2,418.5z"/>
</svg>
