<?xml version="1.0" encoding="utf-8"?>
<!-- Generator: Adobe Illustrator 25.2.1, SVG Export Plug-In . SVG Version: 6.00 Build 0)  -->
<svg version="1.1" id="Capa_1" xmlns="http://www.w3.org/2000/svg" xmlns:xlink="http://www.w3.org/1999/xlink" x="0px" y="0px"
	 viewBox="0 0 415.1 415.1" style="enable-background:new 0 0 415.1 415.1;" xml:space="preserve">
<style type="text/css">
	.st0{fill:#003047;}
	.st1{fill:#81A2AE;}
</style>
<g>
	<g id="Layer_1_14_">
		<g>
			<path class="st0" d="M351.5,176.9c0,0-80.5-60-103.5-67.4c-23.1-7.4-56-3.2-76,1.9L121.8,126l-39.2-43c-5.4-5.9-14.4-7-21-2.2
				c-7.1,5.1-8.8,15.1-3.7,22.2l42.2,58.8c3.9,5.4,10.7,8.5,17.7,7.3l2.7-0.5l48.3-8.1l7.8,88.8l-0.7,18.2l-97,47.3
				c-11.1,5.5-16.4,18.8-11.6,30.4c5,12.2,18.9,18,31.1,13l116.1-47.6c4.8-2,8.9-5.3,11.8-9.6l7.3,15.4l-62.8,57.3
				c-9.1,8.3-10.4,22.4-2.7,32.3c8.1,10.4,23.1,12.2,33.4,4.1l84.1-65.8c9-7.1,12.7-19.5,8.2-30.7l-0.7-1.8l-26.2-65l-6.7-76.5
				l70.4,40.2c8.8,5,20.3,2.6,26.2-6C362.8,195.5,360.6,183.1,351.5,176.9z"/>
			<circle class="st1" cx="222" cy="50" r="50"/>
			<path class="st1" d="M107.1,89.5c24,0,43.5-19.5,43.5-43.5S131.1,2.5,107.1,2.5S63.6,22,63.6,46C63.6,70,83.1,89.5,107.1,89.5z
				 M107.1,81.2c-4.3,0-8.5-0.8-12.4-2.2c0.2-1.1,0.4-2.2,0.7-3.4c6.8-6.5,16.6-6.5,23.4,0c0.2,1.1,0.5,2.3,0.7,3.4
				C115.6,80.4,111.5,81.2,107.1,81.2z M107.1,10.7c4.3,0,8.5,0.8,12.4,2.2c-0.2,1.1-0.4,2.2-0.7,3.3c-6.8,6.5-16.6,6.5-23.4,0
				c-0.2-1.1-0.5-2.2-0.7-3.3C98.6,11.5,102.8,10.7,107.1,10.7z M87.2,34.3c14.4-3.1,25.4-3.1,39.8,0c6.5,6.8,6.5,16.6,0,23.4
				c-14.4,3.1-25.4,3.1-39.8,0C80.7,50.9,80.7,41.1,87.2,34.3z"/>
		</g>
	</g>
</g>
</svg>
